HIERARCHY
ROOT hip
{
  OFFSET 0.00112043 5.09927 -9.65472
  CHANNELS 6 Xposition Yposition Zposition Zrotation Xrotation Yrotation
  JOINT abdomen
  {
    OFFSET 0 -1.186 -1.5018
    CHANNELS 3 Zrotation Xrotation Yrotation
    JOINT abdomen2
    {
      OFFSET 0 9.964 0.2134
      CHANNELS 3 Zrotation Xrotation Yrotation
      JOINT chest
      {
        OFFSET 0 13.134 -3.2573
        CHANNELS 3 Zrotation Xrotation Yrotation
        JOINT neck
        {
          OFFSET 0 20.686 -1.6905
          CHANNELS 3 Zrotation Xrotation Yrotation
          JOINT head
          {
            OFFSET 0 7.238 -0.1237
            CHANNELS 3 Zrotation Xrotation Yrotation
            End Site
            {
              OFFSET 0 0 0
            }
          }
        }
        JOINT lCollar
        {
          OFFSET 1.7069 20.075 5.0056
          CHANNELS 3 Zrotation Xrotation Yrotation
          JOINT lShldr
          {
            OFFSET 13.6458 -0.047 -4.849
            CHANNELS 3 Zrotation Xrotation Yrotation
            JOINT lForeArm
            {
              OFFSET 28.3255 -0.9759 2.2888
              CHANNELS 3 Zrotation Xrotation Yrotation
              JOINT lHand
              {
                OFFSET 22.1583 -0.53 10.8316
                CHANNELS 3 Zrotation Xrotation Yrotation
                JOINT lThumb1
                {
                  OFFSET 0.786 0.112 2.5817
                  CHANNELS 3 Zrotation Xrotation Yrotation
                  JOINT lThumb2
                  {
                    OFFSET 0.3601 -0.878 4.2331
                    CHANNELS 3 Zrotation Xrotation Yrotation
                    JOINT lThumb2_End
                    {
                      OFFSET 1.8127 -1.216 2.2227
                      CHANNELS 3 Zrotation Xrotation Yrotation
                      End Site
                      {
                        OFFSET 0.0181 -0.0122 0.0222
                      }
                    }
                  }
                }
                JOINT lCarpal1
                {
                  OFFSET 0.9571 1.114 1.7695
                  CHANNELS 3 Zrotation Xrotation Yrotation
                  JOINT lIndex1
                  {
                    OFFSET 4.1246 0.487 4.1451
                    CHANNELS 3 Zrotation Xrotation Yrotation
                    JOINT lIndex2
                    {
                      OFFSET 3.4052 -1.454 2.7682
                      CHANNELS 3 Zrotation Xrotation Yrotation
                      JOINT lIndex2_End
                      {
                        OFFSET 1.4531 -1.795 1.2713
                        CHANNELS 3 Zrotation Xrotation Yrotation
                        End Site
                        {
                          OFFSET 0.0145 -0.0179 0.0127
                        }
                      }
                    }
                  }
                  JOINT lMid1
                  {
                    OFFSET 5.6954 0.21 2.1184
                    CHANNELS 3 Zrotation Xrotation Yrotation
                    JOINT lMid2
                    {
                      OFFSET 3.9766 -1.54 2.3863
                      CHANNELS 3 Zrotation Xrotation Yrotation
                      JOINT lMid2_End
                      {
                        OFFSET 1.4042 -1.926 1.125
                        CHANNELS 3 Zrotation Xrotation Yrotation
                        End Site
                        {
                          OFFSET 0.014 -0.0193 0.0113
                        }
                      }
                    }
                  }
                }
                JOINT lCarpal2
                {
                  OFFSET 2.0956 0.66 -0.3894
                  CHANNELS 3 Zrotation Xrotation Yrotation
                  JOINT lRing1
                  {
                    OFFSET 5.0395 -0.09 2.4971
                    CHANNELS 3 Zrotation Xrotation Yrotation
                    JOINT lRing2
                    {
                      OFFSET 3.7921 -1.552 1.4806
                      CHANNELS 3 Zrotation Xrotation Yrotation
                      JOINT lRing2_End
                      {
                        OFFSET 1.4655 -1.808 0.9609
                        CHANNELS 3 Zrotation Xrotation Yrotation
                        End Site
                        {
                          OFFSET 0.0147 -0.0181 0.0096
                        }
                      }
                    }
                  }
                  JOINT lPinky1
                  {
                    OFFSET 4.9141 -1.269 0.3591
                    CHANNELS 3 Zrotation Xrotation Yrotation
                    JOINT lPinky2
                    {
                      OFFSET 3.1477 -1.685 0.8462
                      CHANNELS 3 Zrotation Xrotation Yrotation
                      JOINT lPinky2_End
                      {
                        OFFSET 0.8055 -1.585 0.7955
                        CHANNELS 3 Zrotation Xrotation Yrotation
                        End Site
                        {
                          OFFSET 0.0081 -0.0158 0.008
                        }
                      }
                    }
                  }
                }
              }
            }
          }
        }
        JOINT rCollar
        {
          OFFSET -1.7069 20.075 5.0056
          CHANNELS 3 Zrotation Xrotation Yrotation
          JOINT rShldr
          {
            OFFSET -13.6458 -0.047 -4.849
            CHANNELS 3 Zrotation Xrotation Yrotation
            JOINT rForeArm
            {
              OFFSET -28.3255 -0.9759 2.2888
              CHANNELS 3 Zrotation Xrotation Yrotation
              JOINT rHand
              {
                OFFSET -22.1583 -0.53 10.8316
                CHANNELS 3 Zrotation Xrotation Yrotation
                JOINT rThumb1
                {
                  OFFSET -0.786 0.112 2.5817
                  CHANNELS 3 Zrotation Xrotation Yrotation
                  JOINT rThumb2
                  {
                    OFFSET -0.3601 -0.878 4.2331
                    CHANNELS 3 Zrotation Xrotation Yrotation
                    JOINT rThumb2_End
                    {
                      OFFSET -1.8127 -1.216 2.2227
                      CHANNELS 3 Zrotation Xrotation Yrotation
                      End Site
                      {
                        OFFSET -0.0181 -0.0122 0.0222
                      }
                    }
                  }
                }
                JOINT rCarpal1
                {
                  OFFSET -0.9571 1.114 1.7695
                  CHANNELS 3 Zrotation Xrotation Yrotation
                  JOINT rIndex1
                  {
                    OFFSET -4.1246 0.487 4.1451
                    CHANNELS 3 Zrotation Xrotation Yrotation
                    JOINT rIndex2
                    {
                      OFFSET -3.4052 -1.454 2.7682
                      CHANNELS 3 Zrotation Xrotation Yrotation
                      JOINT rIndex2_End
                      {
                        OFFSET -1.4531 -1.795 1.2713
                        CHANNELS 3 Zrotation Xrotation Yrotation
                        End Site
                        {
                          OFFSET -0.0145 -0.018 0.0127
                        }
                      }
                    }
                  }
                  JOINT rMid1
                  {
                    OFFSET -5.6954 0.21 2.1184
                    CHANNELS 3 Zrotation Xrotation Yrotation
                    JOINT rMid2
                    {
                      OFFSET -3.9766 -1.54 2.3863
                      CHANNELS 3 Zrotation Xrotation Yrotation
                      JOINT rMid2_End
                      {
                        OFFSET -1.4042 -1.926 1.125
                        CHANNELS 3 Zrotation Xrotation Yrotation
                        End Site
                        {
                          OFFSET -0.014 -0.0193 0.0113
                        }
                      }
                    }
                  }
                }
                JOINT rCarpal2
                {
                  OFFSET -2.0956 0.66 -0.3894
                  CHANNELS 3 Zrotation Xrotation Yrotation
                  JOINT rRing1
                  {
                    OFFSET -5.0395 -0.09 2.4971
                    CHANNELS 3 Zrotation Xrotation Yrotation
                    JOINT rRing2
                    {
                      OFFSET -3.7921 -1.552 1.4806
                      CHANNELS 3 Zrotation Xrotation Yrotation
                      JOINT rRing2_End
                      {
                        OFFSET -1.4655 -1.808 0.9609
                        CHANNELS 3 Zrotation Xrotation Yrotation
                        End Site
                        {
                          OFFSET -0.0147 -0.0181 0.0096
                        }
                      }
                    }
                  }
                  JOINT rPinky1
                  {
                    OFFSET -4.9141 -1.269 0.3592
                    CHANNELS 3 Zrotation Xrotation Yrotation
                    JOINT rPinky2
                    {
                      OFFSET -3.1477 -1.685 0.8462
                      CHANNELS 3 Zrotation Xrotation Yrotation
                      JOINT rPinky2_End
                      {
                        OFFSET -0.8055 -1.585 0.7955
                        CHANNELS 3 Zrotation Xrotation Yrotation
                        End Site
                        {
                          OFFSET -0.0081 -0.0158 0.008
                        }
                      }
                    }
                  }
                }
              }
            }
          }
        }
      }
    }
  }
  JOINT lThigh
  {
    OFFSET 8.367 -8.2066 0.5982
    CHANNELS 3 Zrotation Xrotation Yrotation
    JOINT lShin
    {
      OFFSET 2.1923 -43.463 -0.4932
      CHANNELS 3 Zrotation Xrotation Yrotation
      JOINT lFoot
      {
        OFFSET 0.7333 -45.8593 -2.6451
        CHANNELS 3 Zrotation Xrotation Yrotation
        End Site
        {
          OFFSET 2.6618 -4.2699 12.3931
        }
      }
    }
  }
  JOINT rThigh
  {
    OFFSET -8.367 -8.2066 0.5982
    CHANNELS 3 Zrotation Xrotation Yrotation
    JOINT rShin
    {
      OFFSET -2.1923 -43.463 -0.4931
      CHANNELS 3 Zrotation Xrotation Yrotation
      JOINT rFoot
      {
        OFFSET -0.7333 -45.8593 -2.6451
        CHANNELS 3 Zrotation Xrotation Yrotation
        End Site
        {
          OFFSET -2.6618 -4.2699 12.3931
        }
      }
    }
  }
}
MOTION
Frames:	5
Frame Time:	0.0333333
0 91.7903 2.51682 0 0 -0 0 0 -0 0 0 -0 0 0 -0 0 0 -0 0 0 -0 0 0 -0 1.66051 0.0835086 5.75766 -0.0175111 0.895433 15.7816 7.95139e-016 -1.98785e-016 -0 5.46658e-016 -3.97569e-016 -0 5.96354e-016 0 -0 3.97569e-016 1.98785e-016 9.54166e-015 1.49089e-016 -3.97569e-016 -0 6.4605e-016 0 3.18055e-015 5.96354e-016 0 3.18055e-015 8.94531e-016 -1.98785e-016 6.36111e-015 6.4605e-016 0 3.18055e-015 5.96354e-016 0 3.18055e-015 8.94531e-016 -1.98785e-016 6.36111e-015 1.49089e-016 -3.97569e-016 -0 6.4605e-016 0 3.18055e-015 5.96354e-016 0 3.18055e-015 8.94531e-016 -1.98785e-016 6.36111e-015 6.4605e-016 0 3.18055e-015 5.96354e-016 0 3.18055e-015 8.94531e-016 -1.98785e-016 6.36111e-015 0 0 -0 -1.4496 0.0636048 -5.0245 -1.74811 1.20616 -16.8394 -1.19271e-015 1.98785e-016 -3.18055e-015 -3.97569e-016 1.98785e-016 -3.18055e-015 -2.98177e-016 1.98785e-016 -3.18055e-015 -2.98177e-016 3.97569e-016 -0 4.96962e-016 0 -6.36111e-015 -9.93923e-017 3.97569e-016 -0 -8.94531e-016 5.96354e-016 -0 -3.97569e-016 3.97569e-016 -0 -9.93923e-017 3.97569e-016 -0 -8.94531e-016 5.96354e-016 -0 -3.97569e-016 3.97569e-016 -0 4.96962e-016 0 -6.36111e-015 -9.93923e-017 3.97569e-016 -0 -8.94531e-016 5.96354e-016 -0 -3.97569e-016 3.97569e-016 -0 -9.93923e-017 3.97569e-016 -0 -8.94531e-016 5.96354e-016 -0 -3.97569e-016 3.97569e-016 -0 -4.66111 -0.998717 0.12318 0.00986924 1.54847 0.176523 4.65186 -0.572283 -0.254274 4.66111 -0.998765 -0.123176 -0.00986867 1.54869 -0.176537 -4.65186 -0.572453 0.25427 
-8.49165 91.6663 -20.4791 0 0 -24.4476 0.684412 -0.27212 -0.724583 1.36535 -0.552853 -1.44587 1.36535 -0.552853 -1.44588 -1.14601 4.58631 5.70332 1.18467 -1.3036 5.21443 -6.6566 -0.555215 0.661704 -13.06 -3.06024 5.25652 -5.84042 17.7066 7.62621 -0.515422 -2.41358 -1.22341 -7.72877e-007 1.08482e-006 3.56641e-006 5.66767e-007 -2.9933e-006 -5.3287e-007 -2.68771e-006 2.45703e-006 3.59498e-006 4.77083e-015 0 -3.18055e-015 -7.72877e-007 1.08482e-006 3.56641e-006 5.66767e-007 -2.9933e-006 -5.3287e-007 -2.68771e-006 2.45703e-006 3.59498e-006 -7.72877e-007 1.08482e-006 3.56641e-006 5.66767e-007 -2.9933e-006 -5.3287e-007 -2.68771e-006 2.45703e-006 3.59498e-006 4.77083e-015 0 -3.18055e-015 -7.72877e-007 1.08482e-006 3.56641e-006 5.66767e-007 -2.9933e-006 -5.3287e-007 -2.68771e-006 2.45703e-006 3.59498e-006 -7.72877e-007 1.08482e-006 3.56641e-006 5.66767e-007 -2.9933e-006 -5.3287e-007 -2.68771e-006 2.45703e-006 3.59498e-006 7.59844 5.81127 1.82654 11.0924 18.4592 -2.47928 -3.8525 -3.07009 -9.40162 5.34286 -11.3574 -1.88993 -4.17448e-015 -1.19271e-015 3.18055e-015 3.97569e-016 -2.38542e-015 9.54166e-015 -1.39227e-007 3.94828e-007 -8.11932e-008 -1.39149e-015 -2.38542e-015 -6.36111e-015 -1.98785e-016 -2.78299e-015 9.54166e-015 -5.36719e-015 -1.59028e-015 6.36111e-015 -1.39227e-007 3.94828e-007 -8.11932e-008 -1.98785e-016 -2.78299e-015 9.54166e-015 -5.36719e-015 -1.59028e-015 6.36111e-015 -1.39227e-007 3.94828e-007 -8.11932e-008 -1.39149e-015 -2.38542e-015 -6.36111e-015 -1.98785e-016 -2.78299e-015 9.54166e-015 -5.36719e-015 -1.59028e-015 6.36111e-015 -1.39227e-007 3.94828e-007 -8.11932e-008 -1.98785e-016 -2.78299e-015 9.54166e-015 -5.36719e-015 -1.59028e-015 6.36111e-015 -1.39227e-007 3.94828e-007 -8.11932e-008 0.475817 4.57021 -0.315785 -2.02521 -0.0607851 0.424796 -3.52992 0.0769838 20.4087 1.27539 1.12149 -5.06408 1.90543 -0.662308 -0.323755 -8.96914 -0.301924 3.88267 
-17.0252 91.4545 -44.1748 0 0 -48.8952 1.37772 -0.540888 -1.41547 2.74186 -1.11549 -2.81772 2.74186 -1.11549 -2.81772 -3.20944 9.03561 11.5148 2.60553 -2.57478 10.4368 -13.3003 -1.11022 1.32354 -27.8407 -6.20314 4.75063 -6.47328 33.0541 -3.17379 -1.13026 -4.78533 -2.49188 1.26193e-006 -1.35159e-006 1.37485e-006 8.82781e-031 -1.59028e-014 3.18055e-015 -1.26193e-006 1.35159e-006 -1.37485e-006 3.18055e-015 3.18055e-015 -0 1.26193e-006 -1.35159e-006 1.37485e-006 6.36111e-015 -1.74931e-014 -0 -1.26193e-006 1.35159e-006 -1.37485e-006 1.26193e-006 -1.35159e-006 1.37485e-006 6.36111e-015 -1.74931e-014 -0 -1.26193e-006 1.35159e-006 -1.37485e-006 3.18055e-015 3.18055e-015 -0 1.26193e-006 -1.35159e-006 1.37485e-006 6.36111e-015 -1.74931e-014 -0 -1.26193e-006 1.35159e-006 -1.37485e-006 1.26193e-006 -1.35159e-006 1.37485e-006 6.36111e-015 -1.74931e-014 -0 -1.26193e-006 1.35159e-006 -1.37485e-006 14.8196 11.6047 3.7102 21.8052 36.756 0.947313 -4.96052 -7.08347 -1.85254 10.1815 -22.9482 -3.03097 -9.54166e-015 -3.18055e-015 -0 0 3.18055e-015 -0 3.18055e-015 3.18055e-015 -6.36111e-015 -6.36111e-015 0 -0 6.36111e-015 6.36111e-015 3.18055e-015 -6.36111e-015 0 -3.18055e-015 -1.76556e-031 -3.18055e-015 -3.18055e-015 6.36111e-015 6.36111e-015 3.18055e-015 -6.36111e-015 0 -3.18055e-015 -1.76556e-031 -3.18055e-015 -3.18055e-015 -6.36111e-015 0 -0 6.36111e-015 6.36111e-015 3.18055e-015 -6.36111e-015 0 -3.18055e-015 -1.76556e-031 -3.18055e-015 -3.18055e-015 6.36111e-015 6.36111e-015 3.18055e-015 -6.36111e-015 0 -3.18055e-015 -1.76556e-031 -3.18055e-015 -3.18055e-015 5.98523 9.34023 -0.810198 -4.04629 -0.0208933 0.823456 -11.6186 0.0637293 41.1533 -1.92174 2.28861 -9.98186 3.81109 -1.05453 -0.561055 -13.1791 -0.956609 7.46457 
-22.7887 91.3083 -61.1277 0 0 -66.0085 1.85963 -0.725643 -1.84948 3.69535 -1.51054 -3.67493 3.69535 -1.51054 -3.67492 -5.20263 12.0317 15.7027 3.73572 -3.3939 14.0967 -17.9433 -1.49847 1.78703 -38.2666 -8.40128 4.3923 -2.64663 42.0606 -13.8338 -1.62122 -6.41847 -3.40966 -4.41391e-032 -3.18055e-015 -7.95139e-016 -3.18055e-015 -3.18055e-015 -7.95139e-016 4.20916e-006 4.0317e-007 3.26566e-007 -4.41391e-032 -3.18055e-015 -7.95139e-016 -1.59028e-014 1.59028e-015 7.95139e-015 -9.54166e-015 -6.36111e-015 7.95139e-016 4.20916e-006 4.0317e-007 3.26566e-007 -1.59028e-014 1.59028e-015 7.95139e-015 -9.54166e-015 -6.36111e-015 7.95139e-016 4.20916e-006 4.0317e-007 3.26566e-007 -4.41391e-032 -3.18055e-015 -7.95139e-016 -1.59028e-014 1.59028e-015 7.95139e-015 -9.54166e-015 -6.36111e-015 7.95139e-016 4.20916e-006 4.0317e-007 3.26566e-007 -1.59028e-014 1.59028e-015 7.95139e-015 -9.54166e-015 -6.36111e-015 7.95139e-016 4.20916e-006 4.0317e-007 3.26566e-007 19.6629 15.6408 5.1138 27.3957 49.4042 4.81989 -5.16373 -9.63195 3.54935 13.4224 -31.1642 -3.39203 0 6.36111e-015 -0 0 0 -3.18055e-015 -3.18055e-015 3.18055e-015 -4.77083e-015 -3.18055e-015 6.36111e-015 1.59028e-015 6.36111e-015 -9.54166e-015 -1.59028e-015 -3.18055e-015 -3.18055e-015 -4.77083e-015 -3.18055e-015 3.18055e-015 1.59028e-015 6.36111e-015 -9.54166e-015 -1.59028e-015 -3.18055e-015 -3.18055e-015 -4.77083e-015 -3.18055e-015 3.18055e-015 1.59028e-015 -3.18055e-015 6.36111e-015 1.59028e-015 6.36111e-015 -9.54166e-015 -1.59028e-015 -3.18055e-015 -3.18055e-015 -4.77083e-015 -3.18055e-015 3.18055e-015 1.59028e-015 6.36111e-015 -9.54166e-015 -1.59028e-015 -3.18055e-015 -3.18055e-015 -4.77083e-015 -3.18055e-015 3.18055e-015 1.59028e-015 10.0135 12.912 -1.20448 -5.45341 -0.275541 1.13821 -17.2417 0.309655 55.7059 -4.08733 3.07973 -13.4268 5.1423 -1.33526 -0.737378 -16.033 -1.35834 9.96987 
-24.3154 91.2908 -65.923 0 0 -70.898 1.97718 -0.775614 -1.90241 3.9281 -1.61597 -3.77751 3.9281 -1.61597 -3.77751 -5.85997 12.9456 16.9279 4.07131 -3.53982 15.1333 -19.2687 -1.60935 1.91952 -41.3537 -9.02694 4.29177 -0.751509 44.2297 -17.5226 -1.77082 -6.88073 -3.6767 3.9716e-007 1.10922e-006 -5.88184e-006 4.40596e-006 8.81418e-007 1.64709e-006 8.03777e-007 -5.14758e-007 -6.00129e-006 6.36111e-015 -3.18055e-015 -0 3.9716e-007 1.10922e-006 -5.88184e-006 4.40596e-006 8.81418e-007 1.64709e-006 8.03777e-007 -5.14758e-007 -6.00129e-006 3.9716e-007 1.10922e-006 -5.88184e-006 4.40596e-006 8.81418e-007 1.64709e-006 8.03777e-007 -5.14758e-007 -6.00129e-006 6.36111e-015 -3.18055e-015 -0 3.9716e-007 1.10922e-006 -5.88184e-006 4.40596e-006 8.81418e-007 1.64709e-006 8.03777e-007 -5.14758e-007 -6.00129e-006 3.9716e-007 1.10922e-006 -5.88184e-006 4.40596e-006 8.81418e-007 1.64709e-006 8.03777e-007 -5.14758e-007 -6.00129e-006 21.0661 16.7931 5.57304 28.485 52.9703 6.37609 -5.1385 -10.3097 5.11431 14.3451 -33.5238 -3.42315 1.59028e-015 -6.36111e-015 3.18055e-015 -4.77083e-015 -6.36111e-015 -0 -0 0 1.59028e-015 3.18055e-015 -6.36111e-015 1.59028e-015 1.59028e-015 3.18055e-015 4.77083e-015 -3.18055e-015 3.18055e-015 -1.59028e-015 -3.18055e-015 3.18055e-015 1.59028e-015 1.59028e-015 3.18055e-015 4.77083e-015 -3.18055e-015 3.18055e-015 -1.59028e-015 -3.18055e-015 3.18055e-015 1.59028e-015 3.18055e-015 -6.36111e-015 1.59028e-015 1.59028e-015 3.18055e-015 4.77083e-015 -3.18055e-015 3.18055e-015 -1.59028e-015 -3.18055e-015 3.18055e-015 1.59028e-015 1.59028e-015 3.18055e-015 4.77083e-015 -3.18055e-015 3.18055e-015 -1.59028e-015 -3.18055e-015 3.18055e-015 1.59028e-015 11.1106 14.007 -1.30739 -5.8534 -0.48797 1.23692 -18.7946 0.488638 59.873 -4.76724 3.28464 -14.4073 5.52188 -1.42 -0.796111 -16.7877 -1.30164 10.7169 
